<svg id="shoping_cart" data-name="shoping cart" xmlns="http://www.w3.org/2000/svg" width="19.082" height="19.136" viewBox="0 0 19.082 19.136">
  <path id="Shoping_cart-2" data-name="Shoping cart" d="M1285.964,111.977a1.888,1.888,0,0,1-1.664.986h-7.1l-1.052,1.913h11.447v1.914h-11.447a1.916,1.916,0,0,1-1.664-2.842l1.288-2.335-3.439-7.262h-1.908v-1.913h3.125l.9,1.913h14.116a.951.951,0,0,1,.824,1.416Zm.966-5.712h-11.588l2.261,4.784h6.7Zm-10.787,11.483a1.913,1.913,0,1,0,1.908,1.913A1.906,1.906,0,0,0,1276.143,117.747Zm7.639,1.913a1.9,1.9,0,1,1,1.9,1.913A1.907,1.907,0,0,1,1283.782,119.66Z" transform="translate(-1270.42 -102.438)" fill="#4b4b4b" fill-rule="evenodd"/>
</svg>
