<svg xmlns="http://www.w3.org/2000/svg" width="218" height="218" viewBox="0 0 218 218">
  <g id="Grupo_35" data-name="Grupo 35" transform="translate(933 -1608)">
    <g id="Grupo_34" data-name="Grupo 34" transform="translate(-933 1608)">
      <g id="Grupo_24" data-name="Grupo 24" transform="translate(0 0)">
        <circle id="Elipse_1" data-name="Elipse 1" cx="109" cy="109" r="109" fill="#049dd9"/>
        <g id="pet" transform="translate(44.173 52.456)">
          <path id="Trazado_1" data-name="Trazado 1" d="M301.085,201H291.09a3.882,3.882,0,0,0,0,7.765h9.995a3.882,3.882,0,0,0,0-7.765Z" transform="translate(-212.871 -158.752)" fill="#33b6c4"/>
          <g id="Grupo_1" data-name="Grupo 1" transform="translate(42.189 0)">
            <path id="Trazado_2" data-name="Trazado 2" d="M257.43,289.71a3.882,3.882,0,1,0-5.49,5.49l7.067,7.067a3.882,3.882,0,0,0,5.49-5.491Z" transform="translate(-228.077 -223.658)" fill="#ffc166"/>
            <path id="Trazado_3" data-name="Trazado 3" d="M166.882,324.978A3.882,3.882,0,0,0,163,328.86v9.995a3.882,3.882,0,1,0,7.765,0V328.86A3.882,3.882,0,0,0,166.882,324.978Z" transform="translate(-163 -250.641)" fill="#ffc166"/>
            <path id="Trazado_4" data-name="Trazado 4" d="M281.338,149.072a3.868,3.868,0,0,0,1.506-.306l9.21-3.88a3.883,3.883,0,0,0-3.015-7.156l-9.21,3.88a3.883,3.883,0,0,0,1.509,7.462Z" transform="translate(-247.829 -111.631)" fill="#ffc166"/>
            <path id="Trazado_5" data-name="Trazado 5" d="M292.632,251.6l-9.257-3.769a3.882,3.882,0,0,0-2.928,7.192L289.7,258.8a3.882,3.882,0,0,0,2.928-7.192Z" transform="translate(-248.255 -193.251)" fill="#ffc166"/>
            <path id="Trazado_6" data-name="Trazado 6" d="M218.628,317.6a3.882,3.882,0,1,0-7.156,3.015l3.88,9.21a3.882,3.882,0,0,0,7.156-3.015Z" transform="translate(-198.7 -243.41)" fill="#ffc166"/>
            <path id="Trazado_7" data-name="Trazado 7" d="M166.882,37.77A3.882,3.882,0,0,0,163,41.652v9.995a3.882,3.882,0,0,0,7.765,0V41.652A3.882,3.882,0,0,0,166.882,37.77Z" transform="translate(-163 -37.77)" fill="#ffc166"/>
          </g>
          <path id="Trazado_8" data-name="Trazado 8" d="M264.5,86.623a3.882,3.882,0,0,0-5.49,0L251.94,93.69a3.882,3.882,0,1,0,5.49,5.491l7.067-7.067A3.882,3.882,0,0,0,264.5,86.623Z" transform="translate(-185.888 -73.135)" fill="#ffa05a"/>
          <g id="Grupo_2" data-name="Grupo 2" transform="translate(0 12.35)">
            <path id="Trazado_9" data-name="Trazado 9" d="M61.41,289.71a3.882,3.882,0,0,0-5.49,0l-7.067,7.067a3.882,3.882,0,1,0,5.49,5.491L61.41,295.2A3.882,3.882,0,0,0,61.41,289.71Z" transform="translate(-35.365 -236.008)" fill="#ffc166"/>
            <path id="Trazado_10" data-name="Trazado 10" d="M13.877,208.765a3.882,3.882,0,1,0,0-7.765H3.882a3.882,3.882,0,1,0,0,7.765Z" transform="translate(0 -171.102)" fill="#ffc166"/>
            <path id="Trazado_11" data-name="Trazado 11" d="M55.92,99.18a3.882,3.882,0,1,0,5.49-5.491l-7.067-7.067a3.882,3.882,0,1,0-5.491,5.491Z" transform="translate(-35.365 -85.485)" fill="#ffc166"/>
          </g>
          <path id="Trazado_12" data-name="Trazado 12" d="M218.895,50.08a3.882,3.882,0,0,0-5.06,2.132l-3.769,9.257a3.882,3.882,0,1,0,7.191,2.928l3.769-9.257A3.882,3.882,0,0,0,218.895,50.08Z" transform="translate(-155.482 -46.68)" fill="#ffa05a"/>
          <g id="Grupo_3" data-name="Grupo 3" transform="translate(3.112 3.307)">
            <path id="Trazado_13" data-name="Trazado 13" d="M110.59,316.086a3.883,3.883,0,0,0-5.06,2.132l-3.769,9.257a3.882,3.882,0,1,0,7.191,2.928l3.769-9.257A3.882,3.882,0,0,0,110.59,316.086Z" transform="translate(-78.321 -247.143)" fill="#ffc166"/>
            <path id="Trazado_14" data-name="Trazado 14" d="M29.448,251.313a3.882,3.882,0,0,0-5.085-2.071l-9.211,3.881a3.882,3.882,0,1,0,3.015,7.156l9.211-3.881A3.882,3.882,0,0,0,29.448,251.313Z" transform="translate(-12.581 -197.588)" fill="#ffc166"/>
            <path id="Trazado_15" data-name="Trazado 15" d="M14.443,146.723l9.257,3.769a3.882,3.882,0,0,0,2.928-7.192l-9.257-3.769a3.882,3.882,0,1,0-2.928,7.192Z" transform="translate(-12.023 -116.286)" fill="#ffc166"/>
            <path id="Trazado_16" data-name="Trazado 16" d="M103.841,65.147A3.882,3.882,0,1,0,111,62.132l-3.881-9.21a3.882,3.882,0,0,0-7.156,3.015Z" transform="translate(-76.974 -50.546)" fill="#ffc166"/>
          </g>
          <path id="Trazado_17" data-name="Trazado 17" d="M68.216,67.678a38.307,38.307,0,1,0,38.307,38.307A38.351,38.351,0,0,0,68.216,67.678Z" transform="translate(-22.168 -59.937)" fill="#f5d250"/>
          <path id="Trazado_18" data-name="Trazado 18" d="M68.216,67.678a38.307,38.307,0,0,0,0,76.614Z" transform="translate(-22.168 -59.937)" fill="#fae678"/>
          <path id="Trazado_19" data-name="Trazado 19" d="M125.016,153.27a4.372,4.372,0,0,1-4.281,4.281,4.073,4.073,0,0,1-4.157-4.157,4.372,4.372,0,0,1,4.281-4.281A4.073,4.073,0,0,1,125.016,153.27Z" transform="translate(-86.404 -120.294)" fill="#ffc166"/>
          <path id="Trazado_20" data-name="Trazado 20" d="M216.5,151.929a4.372,4.372,0,0,1-4.281,4.281,4.073,4.073,0,0,1-4.157-4.157,4.371,4.371,0,0,1,4.281-4.281A4.073,4.073,0,0,1,216.5,151.929Z" transform="translate(-154.211 -119.3)" fill="#ffa05a"/>
          <path id="Trazado_21" data-name="Trazado 21" d="M123.593,250.295a4.371,4.371,0,0,1-4.281,4.281,4.073,4.073,0,0,1-4.157-4.157,4.372,4.372,0,0,1,4.281-4.281A4.073,4.073,0,0,1,123.593,250.295Z" transform="translate(-85.349 -192.206)" fill="#ffc166"/>
          <g id="Grupo_4" data-name="Grupo 4" transform="translate(41.829 41.201)">
            <path id="Trazado_22" data-name="Trazado 22" d="M215.079,248.954a4.371,4.371,0,0,1-4.281,4.281,4.073,4.073,0,0,1-4.157-4.157,4.372,4.372,0,0,1,4.281-4.281A4.073,4.073,0,0,1,215.079,248.954Z" transform="translate(-194.985 -232.413)" fill="#ffa05a"/>
            <path id="Trazado_23" data-name="Trazado 23" d="M170.047,201.112a4.372,4.372,0,0,1-4.281,4.281,4.073,4.073,0,0,1-4.157-4.157,4.372,4.372,0,0,1,4.281-4.281A4.073,4.073,0,0,1,170.047,201.112Z" transform="translate(-161.608 -196.954)" fill="#ffa05a"/>
          </g>
          <path id="Trazado_24" data-name="Trazado 24" d="M165.767,205.394a4.073,4.073,0,0,1-4.157-4.157,4.372,4.372,0,0,1,4.281-4.281Z" transform="translate(-119.78 -155.754)" fill="#ffc166"/>
          <path id="Trazado_25" data-name="Trazado 25" d="M310.21,130.209a33.519,33.519,0,1,0,9.818,23.7A33.557,33.557,0,0,0,310.21,130.209Z" transform="translate(-187.508 -99.019)" fill="#b3445f"/>
          <path id="Trazado_26" data-name="Trazado 26" d="M286.608,120.409a33.512,33.512,0,1,0-.1,67.023Z" transform="translate(-187.508 -99.019)" fill="#ff5763"/>
          <path id="Trazado_27" data-name="Trazado 27" d="M316.788,189.781c-19.259,22.793-51.129,20.871-63.033,19.206a33.522,33.522,0,1,0,63.033-19.206Z" transform="translate(-188.077 -150.436)" fill="#8f364b"/>
          <path id="Trazado_28" data-name="Trazado 28" d="M287.077,258.5c-13.561,3.369-26.612,2.349-33.321,1.411a33.524,33.524,0,0,0,33.321,29.861l.046-31.283Z" transform="translate(-188.077 -201.363)" fill="#b3445f"/>
          <path id="Trazado_29" data-name="Trazado 29" d="M182.553,290.116a23.827,23.827,0,1,0,23.827,23.827A23.854,23.854,0,0,0,182.553,290.116Z" transform="translate(-117.643 -224.802)" fill="#3da188"/>
          <path id="Trazado_30" data-name="Trazado 30" d="M182.553,290.116a23.827,23.827,0,1,0,0,47.654V290.116Z" transform="translate(-117.643 -224.802)" fill="#58e892"/>
        </g>
      </g>
    </g>
  </g>
</svg>
