<svg xmlns="http://www.w3.org/2000/svg" width="54.6" height="54.6" viewBox="0 0 54.6 54.6">
  <g id="Grupo_32" data-name="Grupo 32" transform="translate(-1015 -2010)">
    <g id="Grupo_7" data-name="Grupo 7" transform="translate(1015 2010)">
      <path id="Trazado_3098" data-name="Trazado 3098" d="M27.3,54.6A27.3,27.3,0,1,1,54.6,27.3,27.335,27.335,0,0,1,27.3,54.6Z" fill="#049dd9"/>
    </g>
    <g id="Grupo_13" data-name="Grupo 13" transform="translate(1015 2010)">
      <g id="Grupo_8" data-name="Grupo 8">
        <path id="Trazado_3099" data-name="Trazado 3099" d="M43,17.3a11.72,11.72,0,0,1-3.2.9c.5-.1,1.3-1,1.6-1.4a5.243,5.243,0,0,0,1.1-1.9v-.2h-.2a17.678,17.678,0,0,1-3.8,1.5.367.367,0,0,1-.3-.1l-.3-.3a5.825,5.825,0,0,0-1.8-1.1,6.92,6.92,0,0,0-2.8-.5,6.494,6.494,0,0,0-2.7.8,6.252,6.252,0,0,0-2.2,1.8,6.382,6.382,0,0,0-1.3,2.6,8.173,8.173,0,0,0-.1,2.7c0,.2,0,.2-.1.2-5.2-.8-9.6-2.7-13.1-6.7-.2-.2-.2-.2-.4,0-1.5,2.3-.8,6,1.1,7.9.3.2.5.5.8.7a6.592,6.592,0,0,1-2.5-.7c-.2-.1-.2,0-.2.1v.8a6.936,6.936,0,0,0,4.1,5.4,6.89,6.89,0,0,1,.8.3c-.5-.1-1,0-2.5-.1-.2,0-.3.1-.2.2A6.914,6.914,0,0,0,20,34.6a1.7,1.7,0,0,1,.7.1h0c-.6.9-2.6,1.6-3.6,1.9a12.41,12.41,0,0,1-5.4.7h-.4c-.1,0,0,.1.1.2.4.2.7.5,1.1.7a17.832,17.832,0,0,0,3.6,1.4c6.5,1.8,13.8.5,18.7-4.4,3.8-3.8,5.2-9.1,5.2-14.3,0-.2.2-.3.4-.4a10.3,10.3,0,0,0,2.5-2.6.646.646,0,0,0,.2-.5h0C43.1,17.2,43.1,17.3,43,17.3Z" fill="#fff"/>
      </g>
      <g id="Grupo_9" data-name="Grupo 9">
        <path id="Trazado_3100" data-name="Trazado 3100" d="M20.7,40.3Z" fill="#fff" fill-rule="evenodd"/>
      </g>
      <g id="Grupo_10" data-name="Grupo 10">
        <path id="Trazado_3101" data-name="Trazado 3101" d="M20.7,40.3Z" fill="#fff" fill-rule="evenodd"/>
      </g>
      <g id="Grupo_11" data-name="Grupo 11">
        <path id="Trazado_3102" data-name="Trazado 3102" d="M21.8,40.3Z" fill="#fff" fill-rule="evenodd"/>
      </g>
      <g id="Grupo_12" data-name="Grupo 12">
        <path id="Trazado_3103" data-name="Trazado 3103" d="M33.1,14.2h0Z" fill="#fff" fill-rule="evenodd"/>
      </g>
    </g>
  </g>
</svg>
