<svg xmlns="http://www.w3.org/2000/svg" width="21.688" height="21.688" viewBox="0 0 21.688 21.688">
  <path id="insta" d="M5.985,21.688A5.994,5.994,0,0,1,0,15.7V5.989A5.993,5.993,0,0,1,5.985,0H15.7a5.993,5.993,0,0,1,5.985,5.989V15.7A5.994,5.994,0,0,1,15.7,21.688Zm-4.06-15.7V15.7a4.063,4.063,0,0,0,4.06,4.06H15.7a4.063,4.063,0,0,0,4.06-4.06V5.989A4.064,4.064,0,0,0,15.7,1.928H5.985A4.064,4.064,0,0,0,1.924,5.989Zm3.332,4.855a5.588,5.588,0,1,1,5.588,5.591A5.594,5.594,0,0,1,5.256,10.844Zm1.924,0a3.664,3.664,0,1,0,3.665-3.663A3.665,3.665,0,0,0,7.18,10.844ZM15.67,6.037a1.413,1.413,0,0,1,0-2,1.42,1.42,0,0,1,2,0,1.417,1.417,0,0,1,0,2,1.42,1.42,0,0,1-2,0Z" fill="#f6524b"/>
</svg>
