<svg xmlns="http://www.w3.org/2000/svg" width="25.207" height="20.483" viewBox="0 0 25.207 20.483">
  <path id="twitter" d="M278.747,5144.389a10.3,10.3,0,0,1-2.964.832,5.179,5.179,0,0,0,2.265-2.867,10.427,10.427,0,0,1-3.277,1.265,5.088,5.088,0,0,0-3.808-1.638,5.162,5.162,0,0,0-5.145,5.168,5.389,5.389,0,0,0,.132,1.181,14.7,14.7,0,0,1-10.651-5.4,5.148,5.148,0,0,0,1.6,6.879,5.114,5.114,0,0,1-2.35-.6v.036a5.173,5.173,0,0,0,4.145,5.074,5.081,5.081,0,0,1-2.325.084,5.156,5.156,0,0,0,4.82,3.59,10.263,10.263,0,0,1-6.422,2.217,10.478,10.478,0,0,1-1.229-.072,14.7,14.7,0,0,0,22.64-12.386c0-.229,0-.446-.012-.675A10.308,10.308,0,0,0,278.747,5144.389Z" transform="translate(-253.54 -5141.98)" fill="#f6524b"/>
</svg>
