<svg xmlns="http://www.w3.org/2000/svg" width="24.098" height="16.869" viewBox="0 0 24.098 16.869">
  <path id="youtube" d="M347.639,5155.029l6.253-3.614-6.253-3.614Zm13.929-9.434a12.464,12.464,0,0,1,.337,2.29c.084.964.121,1.8.121,2.518l.072,1.012a23.944,23.944,0,0,1-.53,5.82,2.823,2.823,0,0,1-2.084,2.084,17.006,17.006,0,0,1-3.193.338c-1.566.084-3,.12-4.326.12l-1.916.072c-5.049,0-8.193-.192-9.434-.53a2.823,2.823,0,0,1-2.085-2.084,12.447,12.447,0,0,1-.337-2.289c-.084-.965-.121-1.8-.121-2.519l-.072-1.012a23.945,23.945,0,0,1,.53-5.82,2.822,2.822,0,0,1,2.085-2.084,17.018,17.018,0,0,1,3.193-.337c1.566-.085,3-.121,4.326-.121l1.916-.073c5.049,0,8.193.193,9.435.531A2.822,2.822,0,0,1,361.568,5145.595Z" transform="translate(-338 -5142.98)" fill="#f6524b"/>
</svg>
